# xmcd CD database file
#
# Track frame offsets:
#	150
#	21975
#	39975
#	56250
#	68025
#	82200
#	138375
#	157650
#	178575
#	195675
#	213675
#	273675
#
# Disc length: 4037 seconds
#
# Revision: 1
# Processed by: cddbd v1.5.1PL2 Copyright (c) Steve Scherf et al.
# Submitted via: freeDBTagger 0.8.2.1
#
DISCID=aa0fc30c
DTITLE=Emerson Lake and Palmer - Ultimate Collection [CD2]
DYEAR=2004
DGENRE=misc
TTITLE0=Karn Evil 9 Part 1 2nd Impress
TTITLE1=Nutrocker
TTITLE2=Peter Gunn Theme
TTITLE3=All I Want Is You
TTITLE4=Brain Salad Surgery
TTITLE5=Take A Pebble
TTITLE6=C'est La Vie
TTITLE7=Lucky Man
TTITLE8=Affairs Of The Heart
TTITLE9=Canario
TTITLE10=Pirates
TTITLE11=The Great Gates Of Kiev
EXTD=
EXTT0=
EXTT1=
EXTT2=
EXTT3=
EXTT4=
EXTT5=
EXTT6=
EXTT7=
EXTT8=
EXTT9=
EXTT10=
EXTT11=
PLAYORDER=
